<?xml version="1.0" encoding="UTF-8" standalone="no"?>
<svg width="319px" height="171px" viewBox="0 0 319 171" version="1.1" xmlns="http://www.w3.org/2000/svg" xmlns:xlink="http://www.w3.org/1999/xlink" xmlns:sketch="http://www.bohemiancoding.com/sketch/ns">
    <!-- Generator: Sketch 3.3.3 (12072) - http://www.bohemiancoding.com/sketch -->
    <title>Fill-1</title>
    <desc>Created with Sketch.</desc>
    <defs></defs>
    <g id="Page-1" stroke="none" stroke-width="1" fill="none" fill-rule="evenodd" sketch:type="MSPage">
        <path d="M125.2393,161.6504 L123.9993,165.7914 L121.4553,160.4624 L125.2393,161.6504 L125.2393,161.6504 Z M27.3173,149.4504 C29.8103,152.0044 33.1313,153.2984 37.1933,153.2984 C41.6813,153.2984 45.1373,151.9384 47.4653,149.2564 C49.6153,146.7784 51.2213,143.2144 52.2433,138.6614 L70.5763,144.4804 C69.2753,149.8824 67.2633,154.4694 64.5933,158.1204 C61.8323,161.8944 58.3603,164.7814 54.2743,166.6984 C50.1753,168.6244 44.8613,169.5994 38.4823,169.5994 C30.7253,169.5994 24.3123,168.4064 19.4243,166.0534 C18.1303,165.4304 16.8513,164.6564 15.6173,163.7494 L27.3173,149.4504 L27.3173,149.4504 Z M17.6573,96.6774 L29.2913,111.0894 C27.9193,112.1384 26.7113,113.4844 25.6963,115.0924 C23.5823,118.3814 22.5103,123.5654 22.5103,130.4984 C22.5103,139.0784 23.7953,145.0754 26.3283,148.3234 C26.3443,148.3444 26.3613,148.3654 26.3783,148.3864 L14.5123,162.8884 C11.6463,160.5384 9.0383,157.4164 6.7543,153.6044 C3.2023,147.6734 1.4003,139.9534 1.4003,130.6554 C1.4003,118.2744 4.5633,108.6414 10.8023,102.0254 C12.7803,99.9294 15.0853,98.1314 17.6573,96.6774 L17.6573,96.6774 L17.6573,96.6774 Z M25.0543,1.5884 L25.0543,16.2624 L3.6953,73.5224 L3.6953,1.5884 L25.0543,1.5884 L25.0543,1.5884 Z M65.7543,24.3604 L28.2563,1.5884 L45.1463,1.5884 C51.9503,1.5884 57.2293,3.3654 60.8383,6.8694 C64.3173,10.2514 66.0933,14.5334 66.2673,19.9604 C66.3163,21.4624 66.1433,22.9394 65.7543,24.3604 L65.7543,24.3604 L65.7543,24.3604 Z M25.7103,44.7594 C25.3243,44.7594 25.0103,45.0744 25.0103,45.4604 L25.0103,60.9614 C25.0103,61.0134 25.0203,61.0544 25.0223,61.0544 L25.0223,61.0534 L25.0513,61.1894 C25.0663,61.2304 25.0863,61.2694 25.1053,61.3034 L25.1783,61.4094 C25.2093,61.4464 25.2423,61.4754 25.2843,61.5104 L25.3953,61.5824 C25.4303,61.5994 25.4663,61.6124 25.4863,61.6174 L66.1403,67.5574 C64.5613,69.8854 62.5463,71.7994 60.1413,73.2544 C58.1643,74.4584 54.8093,75.4964 51.3883,75.9654 C46.6353,76.6174 43.8013,76.7014 41.8653,76.7014 L4.0033,76.7014 L25.6813,18.5884 L33.4993,44.7594 L25.7103,44.7594 L25.7103,44.7594 Z M35.6523,17.0884 C38.8693,17.0884 41.1263,17.6594 42.3623,18.7854 C43.5803,19.8934 44.1973,21.4754 44.1973,23.4874 C44.1973,25.6724 43.5793,27.3524 42.3603,28.4794 C41.1243,29.6204 38.8173,30.1984 35.5033,30.1984 L30.6093,30.1984 L26.6933,17.0884 L35.6523,17.0884 L35.6523,17.0884 Z M54.8473,36.0334 C54.5583,36.1394 54.3733,36.4184 54.3883,36.7284 C54.4053,37.0384 54.6183,37.2964 54.9163,37.3694 C59.9703,38.6474 63.7303,40.8534 66.0893,43.9284 C68.4503,47.0074 69.6473,50.9474 69.6473,55.6374 C69.6473,59.4664 68.7913,62.9524 67.1003,65.9974 C67.0513,66.0864 66.9983,66.1734 66.9453,66.2594 L35.3743,61.6614 L37.1933,61.6614 C41.2313,61.6614 44.1493,60.8714 45.8653,59.3124 C47.6003,57.7394 48.4803,55.6074 48.4803,52.9754 C48.4803,50.5144 47.6053,48.5024 45.8803,46.9944 C44.1813,45.5114 41.2433,44.7594 37.1433,44.7594 L34.9593,44.7594 L31.0273,31.5984 L35.5033,31.5984 C39.1803,31.5984 41.8073,30.8944 43.3083,29.5064 C44.8273,28.1064 45.5963,26.0814 45.5963,23.4874 C45.5963,21.0644 44.8263,19.1344 43.3053,17.7504 C41.8023,16.3814 39.2283,15.6884 35.6523,15.6884 L26.4543,15.6884 L26.4543,2.1304 L65.3043,25.7254 C62.9353,31.9194 56.9763,35.2604 54.8473,36.0334 L54.8473,36.0334 L54.8473,36.0334 Z M71.0483,55.6374 C71.0483,50.6334 69.7533,46.4074 67.2003,43.0764 C64.9473,40.1414 61.5523,37.9434 57.1003,36.5354 C59.2833,35.3624 64.2223,32.1834 66.5163,26.4634 L77.3493,33.0414 L77.3493,67.7764 L68.4333,66.4774 C70.1693,63.2684 71.0483,59.6234 71.0483,55.6374 L71.0483,55.6374 L71.0483,55.6374 Z M47.0813,52.9754 C47.0813,55.1944 46.3553,56.9774 44.9253,58.2764 C43.4743,59.5924 40.8733,60.2604 37.1933,60.2604 L26.4103,60.2604 L26.4103,46.1604 L37.1433,46.1604 C40.8933,46.1604 43.5233,46.7964 44.9593,48.0474 C46.3673,49.2804 47.0813,50.9374 47.0813,52.9754 L47.0813,52.9754 L47.0813,52.9754 Z M64.5633,103.9274 C66.6853,106.9154 68.4493,110.5034 69.8113,114.6054 L52.5203,118.6454 L64.5633,103.9274 L64.5633,103.9274 Z M37.9863,109.7224 C40.1063,109.7224 42.0483,110.1854 43.7553,111.0984 C45.4653,112.0124 46.9343,113.3404 48.1253,115.0484 C48.7803,115.9774 49.4273,117.4584 50.0523,119.4524 L43.9053,126.9644 L31.3413,111.4004 C33.2513,110.2874 35.4843,109.7224 37.9863,109.7224 L37.9863,109.7224 L37.9863,109.7224 Z M37.4413,92.0744 C46.4013,92.0744 53.5263,93.9894 58.6173,97.7664 C60.4653,99.1374 62.1753,100.8204 63.7023,102.7704 L51.1043,118.1664 C50.5193,116.4614 49.9043,115.1424 49.2703,114.2444 C47.9563,112.3584 46.3223,110.8844 44.4153,109.8634 C42.5033,108.8414 40.3403,108.3234 37.9863,108.3234 C35.1403,108.3234 32.6063,108.9864 30.4473,110.2944 L18.9133,96.0054 C24.0753,93.3964 30.3063,92.0744 37.4413,92.0744 L37.4413,92.0744 L37.4413,92.0744 Z M26.8773,115.8444 C27.8103,114.3654 28.9183,113.1344 30.1743,112.1834 L43.0003,128.0714 L27.2893,147.2744 C25.0473,144.2304 23.9103,138.5884 23.9103,130.4984 C23.9103,123.8384 24.9073,118.9104 26.8773,115.8444 L26.8773,115.8444 L26.8773,115.8444 Z M46.4083,148.3384 C44.3573,150.7014 41.2583,151.8994 37.1933,151.8994 C33.4673,151.8994 30.4463,150.7094 28.2093,148.3594 L43.8983,129.1844 L50.9663,137.9394 C49.9973,142.4704 48.4653,145.9694 46.4083,148.3384 L46.4083,148.3384 L46.4083,148.3384 Z M89.7043,70.9904 L85.2453,76.4404 L78.7503,76.4324 L78.7503,69.3944 L89.7043,70.9904 L89.7043,70.9904 Z M126.5993,15.8264 L137.2173,3.0884 L137.2173,15.8264 L126.5993,15.8264 L126.5993,15.8264 Z M99.6673,58.8144 L90.7383,69.7264 L78.7503,67.9794 L78.7503,33.8904 L99.6673,46.5944 L99.6673,58.8144 L99.6673,58.8144 Z M124.7763,15.8264 L100.3663,15.8264 C99.9803,15.8264 99.6673,16.1404 99.6673,16.5264 L99.6673,29.7614 C99.6673,30.1474 99.9803,30.4624 100.3663,30.4624 L112.5763,30.4624 L100.2153,45.2894 L78.7503,32.2544 L78.7503,1.8564 L136.4223,1.8564 L124.7763,15.8264 L124.7763,15.8264 Z M136.4773,59.7644 L136.4773,67.3124 L124.0493,59.7644 L136.4773,59.7644 L136.4773,59.7644 Z M121.3513,59.7644 L136.4773,68.9504 L136.4773,76.3884 L92.3543,69.9624 L100.6983,59.7644 L121.3513,59.7644 L121.3513,59.7644 Z M101.0663,58.3644 L101.0663,47.4444 L119.0463,58.3644 L101.0663,58.3644 L101.0663,58.3644 Z M136.4773,46.9014 L136.4773,58.3644 L121.7433,58.3644 L102.8683,46.9014 L136.4773,46.9014 L136.4773,46.9014 Z M123.6093,17.2264 L113.7433,29.0614 L101.0663,29.0614 L101.0663,17.2264 L123.6093,17.2264 L123.6093,17.2264 Z M136.4773,30.4624 L136.4773,45.5014 L101.8613,45.5014 L114.3983,30.4624 L136.4773,30.4624 L136.4773,30.4624 Z M127.4393,76.4874 L87.0513,76.4424 L91.3203,71.2254 L127.4393,76.4874 L127.4393,76.4874 Z M138.6173,16.5264 L138.6173,1.8564 L150.5983,1.8564 L150.5983,75.8884 L137.8773,68.1624 L137.8773,29.7614 C137.8773,29.3764 137.5633,29.0614 137.1773,29.0614 L115.5653,29.0614 L125.4313,17.2264 L137.9173,17.2264 C138.3023,17.2264 138.6173,16.9124 138.6173,16.5264 L138.6173,16.5264 L138.6173,16.5264 Z M77.9203,77.8114 L84.1003,77.8384 L64.6123,101.6584 C63.0643,99.7224 61.3303,98.0374 59.4513,96.6424 C54.1133,92.6814 46.7083,90.6734 37.4413,90.6734 C29.9613,90.6734 23.4263,92.0924 18.0133,94.8924 L4.4593,78.1014 L41.8653,78.1014 C43.8453,78.1014 46.7393,78.0164 51.5793,77.3514 C55.1773,76.8594 58.7373,75.7474 60.8683,74.4524 C63.6313,72.7804 65.9153,70.5364 67.6613,67.7794 L77.3493,69.1904 L77.3493,77.1324 C77.3493,77.1994 77.3643,77.2514 77.3713,77.2784 L77.4043,77.4034 C77.4323,77.4724 77.4743,77.5364 77.4863,77.5364 L77.4873,77.5364 L77.5543,77.6274 C77.6713,77.7434 77.8113,77.8044 77.9203,77.8114 L77.9203,77.8114 L77.9203,77.8114 Z M124.5803,91.0534 C124.1943,91.0534 123.8803,91.3684 123.8803,91.7544 L123.8803,115.1874 L100.1003,115.1874 L100.1003,91.7544 C100.1003,91.3684 99.7863,91.0534 99.4003,91.0534 L77.3903,91.0534 C77.0053,91.0534 76.6913,91.3684 76.6913,91.7544 L76.6913,144.9354 L52.1343,137.1584 L44.8033,128.0784 L51.0663,120.4224 L70.8703,115.7964 C71.0583,115.7524 71.2213,115.6304 71.3193,115.4614 C71.4153,115.2914 71.4363,115.0874 71.3783,114.9034 C69.8953,110.2144 67.9123,106.1474 65.4803,102.8064 L85.9073,77.8404 L137.1773,77.8984 C137.2663,77.8984 137.3553,77.8804 137.4333,77.8484 L137.5183,77.8034 C137.5593,77.7814 137.6023,77.7544 137.6513,77.7114 L137.7213,77.6294 C137.7423,77.6034 137.7703,77.5644 137.7583,77.5754 L137.8563,77.3184 L137.8583,77.3194 L137.8773,69.8004 L150.4733,77.4504 L146.3963,91.0534 L124.5803,91.0534 L124.5803,91.0534 Z M126.5753,162.0704 L142.3683,167.0304 L125.0893,167.0304 L126.5753,162.0704 L126.5753,162.0704 Z M132.2773,138.1694 L125.6423,160.3094 L120.6313,158.7354 L110.8133,138.1694 L132.2773,138.1694 L132.2773,138.1694 Z M98.7013,137.4684 L98.7013,151.8474 L78.0913,145.3754 L78.0913,92.4544 L98.7013,92.4544 L98.7023,115.9114 C98.7053,115.9654 98.7163,116.0074 98.7243,116.0464 L108.5933,136.7684 L99.4003,136.7684 C99.0143,136.7684 98.7013,137.0834 98.7013,137.4684 L98.7013,137.4684 L98.7013,137.4684 Z M98.7013,153.3154 L98.7013,167.0304 L78.0913,167.0304 L78.0913,146.8414 L98.7013,153.3154 L98.7013,153.3154 Z M124.5803,116.5874 C124.9663,116.5874 125.2803,116.2734 125.2803,115.8874 L125.2803,92.4544 L145.9763,92.4544 L132.6963,136.7684 L110.1443,136.7684 L100.5103,116.5874 L124.5803,116.5874 L124.5803,116.5874 Z M146.2333,96.4724 L146.2333,166.7764 L126.9773,160.7284 L146.2333,96.4724 L146.2333,96.4724 Z M100.1003,152.2874 L100.1003,138.1694 L109.2613,138.1694 L118.8053,158.1624 L100.1003,152.2874 L100.1003,152.2874 Z M214.9913,151.5804 L219.9733,138.2274 L229.4903,165.2444 L214.9913,151.5804 L214.9913,151.5804 Z M164.2573,77.8334 L170.8423,114.7724 L155.3123,158.8584 L147.6343,166.1064 L147.6343,91.8014 L151.8203,77.8334 L164.2573,77.8334 L164.2573,77.8334 Z M208.0013,76.4324 L165.4293,76.4324 L152.1353,1.8564 L172.7853,1.8564 L172.7853,59.0644 C172.7853,59.4504 173.0993,59.7644 173.4853,59.7644 L208.0013,59.7644 L208.0013,76.4324 L208.0013,76.4324 Z M164.0083,76.4324 L151.9993,76.4324 L151.9993,9.0704 L164.0083,76.4324 L164.0083,76.4324 Z M195.8123,122.2784 L204.3663,93.9244 L219.2483,136.1674 L213.8853,150.5394 L200.5923,138.0114 L195.8123,122.2784 L195.8123,122.2784 Z M199.0313,137.6924 L191.1633,137.6924 L195.0833,124.6954 L199.0313,137.6924 L199.0313,137.6924 Z M180.1883,92.4544 L203.3473,92.4544 L194.4663,121.8984 L176.5493,138.8104 L172.2853,114.8894 L180.1883,92.4544 L180.1883,92.4544 Z M179.6923,91.0534 C179.3963,91.0534 179.1313,91.2424 179.0323,91.5214 L171.7863,112.0914 L165.6783,77.8334 L207.7593,77.8334 L203.7703,91.0534 L179.6923,91.0534 L179.6923,91.0534 Z M157.5363,156.7584 L171.3413,117.5704 L175.3333,139.9594 L157.5363,156.7584 L157.5363,156.7584 Z M229.3453,167.0304 L209.2253,167.0304 L214.4613,153.0034 L229.3453,167.0304 L229.3453,167.0304 Z M153.9173,167.0304 L156.5193,159.6434 L175.6263,141.6074 L178.0643,155.2814 L174.7603,167.0304 L153.9173,167.0304 L153.9173,167.0304 Z M204.5243,154.6834 C204.4653,154.6574 204.4123,154.6464 204.3563,154.6364 L179.3673,154.6164 L176.8433,140.4594 L193.6533,124.5894 L189.5473,138.2024 C189.5303,138.2594 189.5333,138.2794 189.5373,138.2704 L189.5203,138.3924 C189.5203,138.4684 189.5323,138.4764 189.5243,138.4274 L189.5523,138.5834 C189.5593,138.6084 189.5713,138.6554 189.5883,138.6844 L189.6713,138.8164 C189.6863,138.8384 189.7143,138.8754 189.7493,138.9064 L190.0153,139.0614 C190.0833,139.0824 190.1513,139.0924 190.2203,139.0924 L199.6993,139.0924 L213.3543,151.9614 L208.2663,165.5944 L204.8873,155.0774 L204.8573,155.0144 C204.8423,154.9834 204.8253,154.9594 204.8133,154.9404 L204.7403,154.8394 C204.6993,154.7964 204.6583,154.7684 204.6403,154.7564 L204.5243,154.6834 L204.5243,154.6834 Z M277.8563,132.1264 L277.2513,134.5444 L276.3253,130.7294 L277.8563,132.1264 L277.8563,132.1264 Z M270.1283,167.0304 L255.4023,133.2334 L255.4023,111.6374 L274.4743,129.0414 L276.5603,137.6324 C276.6353,137.9464 276.9143,138.1674 277.2403,138.1694 C277.5623,138.1694 277.8423,137.9514 277.9193,137.6384 L279.0313,133.1984 L290.8063,143.9424 L285.3163,167.0304 L270.1283,167.0304 L270.1283,167.0304 Z M303.7993,153.9024 L317.2153,97.7014 L317.2153,166.1434 L303.7993,153.9024 L303.7993,153.9024 Z M302.2463,154.3804 L300.4783,161.7834 L300.4783,152.7674 L302.2463,154.3804 L302.2463,154.3804 Z M316.1083,167.0304 L300.6653,167.0304 L303.4273,155.4594 L316.1083,167.0304 L316.1083,167.0304 Z M279.4183,131.6554 L289.2323,92.4544 L317.0293,92.4544 L302.6183,152.8234 L300.4783,150.8724 L300.4783,109.2444 C300.4783,108.8894 300.2143,108.5904 299.8583,108.5474 L299.7793,108.5444 C299.4533,108.5444 299.1733,108.7654 299.0973,109.0824 L291.1763,142.3844 L279.4183,131.6554 L279.4183,131.6554 Z M254.0023,133.5234 L254.0023,167.0304 L237.2663,167.0304 L237.2663,95.1134 L254.0023,133.5234 L254.0023,133.5234 Z M254.7533,109.3504 L254.3863,109.4364 L254.1853,109.5784 C254.1833,109.5804 254.1823,109.5824 254.1803,109.5844 L254.1553,109.6154 C254.1333,109.6454 254.1223,109.6694 254.1213,109.6714 L254.0483,109.8054 C254.0293,109.8584 254.0223,109.9054 254.0223,109.9154 L254.0023,130.0194 L237.6353,92.4544 L265.5973,92.4544 L273.8853,126.6054 L255.1763,109.5344 L255.0823,109.4694 C255.0573,109.4534 255.0153,109.4234 254.9583,109.4014 L254.7533,109.3504 L254.7533,109.3504 Z M292.3593,143.4634 L299.0793,115.2124 L299.0793,149.5944 L292.3593,143.4634 L292.3593,143.4634 Z M318.6073,91.6924 C318.6033,91.6464 318.5953,91.6054 318.5763,91.5404 L318.5393,91.4464 C318.5103,91.3854 318.4763,91.3434 318.4633,91.3274 L318.3693,91.2254 C318.3373,91.1984 318.3013,91.1754 318.1893,91.1194 L288.6853,91.0534 C288.3633,91.0534 288.0843,91.2714 288.0063,91.5844 L278.2433,130.5834 L275.7343,128.2944 L266.8283,91.5894 C266.7523,91.2744 266.4723,91.0534 266.1483,91.0534 L236.4063,91.0534 L236.0213,91.3084 L220.0103,134.1214 L205.0513,91.6554 L209.3673,77.3454 C209.3883,77.2844 209.3873,77.2424 209.3803,77.2694 L209.4013,59.0644 C209.4013,58.6784 209.0873,58.3644 208.7013,58.3644 L174.1843,58.3644 L174.1843,1.1564 C174.1843,0.7704 173.8713,0.4564 173.4853,0.4564 L78.0503,0.4564 C77.6643,0.4564 77.3493,0.7704 77.3493,1.1564 L77.3493,31.4034 L66.9913,25.1124 C67.4973,23.4374 67.7243,21.6914 67.6673,19.9164 C67.4793,14.1064 65.5653,9.5104 61.8133,5.8644 C57.9333,2.0974 52.3253,0.1874 45.1463,0.1874 L2.9953,0.1874 C2.6093,0.1874 2.2953,0.5024 2.2953,0.8874 L2.2953,77.4014 L2.3313,77.6114 L2.3853,77.7284 L16.7643,95.5734 C14.1543,97.0744 11.8083,98.9204 9.7853,101.0654 C3.2923,107.9494 0.0003,117.9054 0.0003,130.6554 C0.0003,140.2094 1.8683,148.1724 5.5533,154.3234 C8.0643,158.5144 10.9593,161.9054 14.1573,164.4024 L14.1583,164.4004 L14.2013,164.4384 C15.6693,165.5794 17.2213,166.5464 18.8173,167.3154 C23.8983,169.7604 30.5143,171.0004 38.4823,171.0004 C45.0673,171.0004 50.5803,169.9794 54.8693,167.9664 C59.1723,165.9464 62.8233,162.9114 65.7233,158.9474 C68.4803,155.1754 70.5603,150.4524 71.9093,144.9004 L76.6913,146.4024 L76.6913,167.7304 C76.6913,168.1164 77.0053,168.4294 77.3903,168.4294 L99.4003,168.4294 C99.7863,168.4294 100.1003,168.1164 100.1003,167.7304 L100.1003,153.7544 L119.6313,159.8874 L123.5213,168.0414 L123.5933,168.1454 C123.6183,168.1804 123.6433,168.2124 123.6753,168.2424 L123.7533,168.3024 L123.9653,167.9934 L123.8423,168.3504 L123.9433,168.3984 C124.0093,168.4194 124.0783,168.4294 124.1483,168.4294 L146.9333,168.4294 C147.0123,168.4294 147.0933,168.4154 147.1953,168.3784 L154.2963,161.7424 L152.2673,167.5004 C152.1933,167.7154 152.2273,167.9534 152.3573,168.1334 C152.4883,168.3194 152.7013,168.4294 152.9283,168.4294 L175.2913,168.4294 C175.6023,168.4294 175.8793,168.2204 175.9663,167.9204 L179.3113,156.0164 L203.7193,156.0164 L207.5483,167.9334 L207.6103,168.0704 C207.6353,168.1164 207.6663,168.1584 207.7013,168.1974 L207.7683,168.2634 C207.8173,168.3044 207.8673,168.3364 207.8683,168.3284 L207.9853,168.3894 C208.0603,168.4164 208.1383,168.4294 208.2183,168.4294 L231.1083,168.4294 C231.2083,168.4294 231.3073,168.4064 231.4143,168.3564 L231.5023,168.2994 C231.5243,168.2874 231.5663,168.2614 231.6633,168.1494 L231.6573,168.1454 L231.7113,168.0734 C231.7463,168.0114 231.7703,167.9484 231.7853,167.8864 L231.8023,167.7854 C231.8083,167.7104 231.7933,167.6504 231.7923,167.6484 L220.7363,136.1814 L235.8663,95.6334 L235.8663,167.7304 C235.8663,168.1164 236.1803,168.4294 236.5663,168.4294 L254.7023,168.4294 C255.0883,168.4294 255.4023,168.1164 255.4023,167.7304 L255.4023,136.7384 L268.9983,167.9424 L269.0313,168.0164 C269.0793,168.1224 269.1543,168.2134 269.3283,168.3364 C269.4383,168.3984 269.5533,168.4294 269.6693,168.4294 L285.8693,168.4294 C286.1943,168.4294 286.4743,168.2094 286.5513,167.8924 L291.9893,145.0214 L299.0793,151.4914 L299.0863,167.7924 C299.0903,167.8374 299.0983,167.8794 299.1113,167.9214 L299.1593,168.0464 C299.1773,168.0834 299.2013,168.1184 299.2303,168.1574 L299.3363,168.2674 C299.3663,168.2924 299.3983,168.3134 299.4983,168.3624 L317.9153,168.4294 C318.0143,168.4294 318.1093,168.4104 318.2203,168.3564 C318.2763,168.3294 318.3273,168.2964 318.3683,168.2614 L318.4313,168.2034 C318.4733,168.1574 318.4953,168.1134 318.4963,168.1114 L318.5693,167.9754 C318.5913,167.9174 318.5963,167.8664 318.5943,167.8654 L318.6153,167.7834 L318.6073,91.6924 L318.6073,91.6924 Z" id="Fill-1" fill="#F5E56A" sketch:type="MSShapeGroup"></path>
    </g>
</svg>