<?xml version="1.0" encoding="UTF-8" standalone="no"?>
<svg width="226px" height="77px" viewBox="0 0 226 77" version="1.1" xmlns="http://www.w3.org/2000/svg" xmlns:xlink="http://www.w3.org/1999/xlink" xmlns:sketch="http://www.bohemiancoding.com/sketch/ns">
    <!-- Generator: Sketch 3.3.3 (12072) - http://www.bohemiancoding.com/sketch -->
    <title>Shape</title>
    <desc>Created with Sketch.</desc>
    <defs></defs>
    <g id="Page-1" stroke="none" stroke-width="1" fill="none" fill-rule="evenodd" sketch:type="MSPage">
        <path d="M19.1,1 L0.4,1 L0.4,76.2 L19.1,76.2 C25,76.2 29.5,74.6 32.4,71.5 C35.3,68.4 36.7,63.7 36.7,57.6 L36.7,19.6 C36.7,13.5 35.3,8.9 32.4,5.7 C29.5,2.6 25,1 19.1,1 L19.1,1 Z M24.9,58.1 C24.9,60.8 24.4,62.7 23.3,63.8 C22.2,64.9 20.8,65.4 18.9,65.4 L12.2,65.4 L12.2,19.5 L4.4,11.7 L18.9,11.7 C20.8,11.7 22.2,12.2 23.3,13.3 C24.4,14.4 24.9,16.3 24.9,19 L24.9,58.1 L24.9,58.1 Z M52.3,1 L64.1,1 L64.1,76.2 L52.3,76.2 L52.3,1 Z M97.9,0.1 C92.1,0.1 87.7,1.7 84.7,5 C81.7,8.3 80.2,12.9 80.2,19 L80.2,58.1 C80.2,64.2 81.7,68.9 84.7,72.1 C87.7,75.4 92.1,77 97.9,77 L100.8,77 C106.5,77 110.8,75.3 113.7,72.1 C116.7,68.8 118.2,64.2 118.2,58.1 L118.2,34.3 L101.7,34.3 L101.7,45 L107.1,45 L107.1,58.9 C107.1,61.6 106.5,63.5 105.4,64.6 C104.3,65.6 102.9,66.2 101.1,66.2 L98.2,66.2 C96.3,66.2 94.9,65.7 93.7,64.6 C92.6,63.5 92,61.6 92,58.9 L92,18.3 C92,15.6 92.6,13.7 93.7,12.6 C94.8,11.5 96.3,10.9 98.2,10.9 L101,10.9 C102.8,10.9 104.2,11.5 105.3,12.6 C106.4,13.7 107,15.6 107,18.3 L107,26.4 L118.2,26.4 L118.2,19 C118.2,12.9 116.7,8.2 113.7,5 C110.8,1.8 106.4,0.1 100.7,0.1 L97.9,0.1 L97.9,0.1 Z M134.3,1 L146.1,1 L146.1,76.2 L134.3,76.2 L134.3,1 Z M161.6,11.7 L174,11.7 L174,76.1 L185.8,76.1 L185.8,19.5 L178.1,11.7 L198.2,11.7 L198.2,1 L161.6,1 L161.6,11.7 Z M213.7,1 L225.5,1 L225.5,76.2 L213.7,76.2 L213.7,1 Z" id="Shape" fill="#000000" sketch:type="MSShapeGroup"></path>
    </g>
</svg>