<?xml version="1.0" encoding="UTF-8" standalone="no"?>
<svg width="98px" height="52px" viewBox="0 0 98 52" version="1.1" xmlns="http://www.w3.org/2000/svg" xmlns:xlink="http://www.w3.org/1999/xlink" xmlns:sketch="http://www.bohemiancoding.com/sketch/ns">
    <!-- Generator: Sketch 3.3.3 (12072) - http://www.bohemiancoding.com/sketch -->
    <title>Fill 1</title>
    <desc>Created with Sketch.</desc>
    <defs></defs>
    <g id="Screen" stroke="none" stroke-width="1" fill="none" fill-rule="evenodd" sketch:type="MSPage">
        <g sketch:type="MSArtboardGroup" transform="translate(-1240.000000, -813.000000)" id="Powerd-by-+-Fill-1" fill="#585858">
            <g sketch:type="MSLayerGroup" transform="translate(1103.000000, 813.000000)">
                <path d="M137.100523,40.4634428 L139.976254,40.4634428 L139.976254,22.9861835 L137.100523,22.9861835 L137.100523,19.1150644 L146.643795,19.1150644 C155.765421,19.1150644 161.170531,23.8676261 161.170531,31.4949152 C161.170531,39.1974985 156.07262,44.3345618 146.183999,44.3345618 L137.100523,44.3345618 L137.100523,40.4634428 L137.100523,40.4634428 Z M146.797897,40.4634428 C153.31485,40.4634428 156.685012,36.9376725 156.685012,31.5335662 C156.685012,26.0150129 152.776748,22.9861835 146.490195,22.9861835 L144.307169,22.9861835 L144.307169,40.4634428 L146.797897,40.4634428 Z M164.156694,40.8855915 L166.724723,40.8855915 L166.724723,31.0737704 L164.156694,31.0737704 L164.156694,27.5480002 L170.90254,27.5480002 L170.90254,40.8855915 L173.39377,40.8855915 L173.39377,44.3345618 L164.156694,44.3345618 L164.156694,40.8855915 Z M165.613885,22.2196899 C165.613885,20.6867026 166.953617,19.4604132 168.449961,19.4604132 C169.9448,19.4604132 171.210744,20.6867026 171.210744,22.2196899 C171.210744,23.7531791 169.868,24.9799704 168.373162,24.9799704 C166.877319,24.9799704 165.613885,23.7531791 165.613885,22.2196899 Z M191.563233,44.3727108 C191.563233,46.4422938 191.028143,48.1670299 189.993602,49.4319703 C188.612709,51.1195614 186.427675,52 183.707552,52 C180.794675,52 178.301437,51.0809104 177.114803,49.892268 C176.462254,49.2407234 176.194709,48.5123787 176.194709,47.70874 C176.194709,46.5190937 177.076152,45.3701063 178.456543,45.3701063 C179.758629,45.3701063 180.794675,46.2891959 180.794675,47.5536343 C180.794675,47.7463871 180.75502,48.051579 180.716369,48.2051789 C181.407067,48.4355788 182.211709,48.6278296 183.208101,48.6278296 C184.702939,48.6278296 185.893087,48.1670299 186.618922,47.1706384 C187.118373,46.4804428 187.385918,45.5222003 187.385918,44.2582638 L187.385918,41.843834 C186.122483,43.1082724 184.779739,43.989715 182.555552,43.989715 C178.301437,43.989715 174.892624,40.7319916 174.892624,35.7490301 C174.892624,30.9593234 178.378237,27.2408004 182.749811,27.2408004 C184.894186,27.2408004 186.427675,28.08309 187.539016,29.0428384 L187.539016,27.5480002 L194.054964,27.5480002 L194.054964,31.0737704 L191.563233,31.0737704 L191.563233,44.3727108 Z M179.18539,35.7113831 C179.18539,38.7773576 181.06222,40.4634428 183.630752,40.4634428 C185.049292,40.4634428 186.313228,39.8118981 187.385918,38.8155066 L187.385918,32.145958 C186.390028,31.3794643 185.12559,30.8433706 183.630752,30.8433706 C181.06222,30.8433706 179.18539,32.5304597 179.18539,35.7113831 Z M196.161693,40.8855915 L198.730224,40.8855915 L198.730224,31.0737704 L196.161693,31.0737704 L196.161693,27.5480002 L202.907539,27.5480002 L202.907539,40.8855915 L205.396259,40.8855915 L205.396259,44.3345618 L196.161693,44.3345618 L196.161693,40.8855915 Z M197.616876,22.2196899 C197.616876,20.6867026 198.958616,19.4604132 200.453454,19.4604132 C201.947791,19.4604132 203.212731,20.6867026 203.212731,22.2196899 C203.212731,23.7531791 201.871493,24.9799704 200.37816,24.9799704 C198.881816,24.9799704 197.616876,23.7531791 197.616876,22.2196899 Z M210.799361,42.3417788 C210.41737,41.6515832 210.226123,40.7701406 210.226123,39.6964472 L210.226123,31.0737704 L206.967897,31.0737704 L206.967897,27.5480002 L210.226123,27.5480002 L210.226123,24.020724 L214.365791,22.2196899 L214.365791,27.5480002 L219.462697,27.5480002 L219.462697,31.0737704 L214.365791,31.0737704 L214.365791,38.8918046 C214.365791,39.4289023 214.442089,39.7732471 214.633335,40.1195999 C214.939029,40.6546897 215.552425,40.9232386 216.396221,40.9232386 C217.468408,40.9232386 218.695701,40.5020937 219.692093,40.041294 L219.34825,43.6453701 C218.197757,44.218609 216.855012,44.6412597 215.323531,44.6412597 C213.291093,44.6412597 211.642655,43.951064 210.799361,42.3417788 Z M221.99057,40.8855915 L224.5586,40.8855915 L224.5586,31.0737704 L221.99057,31.0737704 L221.99057,27.5480002 L228.735915,27.5480002 L228.735915,40.8855915 L231.227646,40.8855915 L231.227646,44.3345618 L221.99057,44.3345618 L221.99057,40.8855915 Z M221.975009,18.219567 L228.752479,18.219567 L228.752479,24.9955312 L221.975009,24.9955312 L221.975009,18.219567 Z M216.942354,17.4370106 L220.351669,17.4370106 L220.351669,20.846828 L216.942354,20.846828 L216.942354,17.4370106 Z M223.761988,11.7543163 L228.592856,11.7543163 L228.592856,16.5851837 L223.761988,16.5851837 L223.761988,11.7543163 Z M229.161075,7.49267198 L234.55966,7.49267198 L234.55966,12.8902528 L229.161075,12.8902528 L229.161075,7.49267198 Z M226.318975,0.388927561 L231.71756,0.388927561 L231.71756,5.78701034 L226.318975,5.78701034 L226.318975,0.388927561 Z M221.773221,6.63984116 L225.183038,6.63984116 L225.183038,10.0486546 L221.773221,10.0486546 L221.773221,6.63984116 Z M212.111486,7.20856236 L220.351669,7.20856236 L220.351669,15.4487453 L212.111486,15.4487453 L212.111486,7.20856236 Z M230.298517,14.3113029 L233.707331,14.3113029 L233.707331,17.7211203 L230.298517,17.7211203 L230.298517,14.3113029 Z" id="Fill-1" sketch:type="MSShapeGroup"></path>
            </g>
        </g>
    </g>
</svg>