<?xml version="1.0" encoding="UTF-8" standalone="no"?>
<svg width="69px" height="69px" viewBox="0 0 69 69" version="1.1" xmlns="http://www.w3.org/2000/svg" xmlns:xlink="http://www.w3.org/1999/xlink" xmlns:sketch="http://www.bohemiancoding.com/sketch/ns">
    <!-- Generator: Sketch 3.3.3 (12072) - http://www.bohemiancoding.com/sketch -->
    <title>Fill-4 + Fill-5</title>
    <desc>Created with Sketch.</desc>
    <defs></defs>
    <g id="Page-1" stroke="none" stroke-width="1" fill="none" fill-rule="evenodd" sketch:type="MSPage">
        <g id="Fill-4-+-Fill-5" sketch:type="MSLayerGroup">
            <path d="M0.232992701,0.255474453 L69,0.255474453 L69,69 L0.232992701,69 L0.232992701,0.255474453 L0.232992701,0.255474453 Z" id="Fill-4" fill="#000000" sketch:type="MSShapeGroup"></path>
            <path d="M54.4068613,51.9956934 C54.3281752,52.1377372 54.2428467,52.2736496 54.1590511,52.4110949 L35.9641606,49.5140146 L36.5527737,49.5140146 C39.0278102,49.5140146 40.7451095,49.0470073 41.8022628,48.0864234 C42.8594161,47.1273723 43.3954015,45.830073 43.3954015,44.230292 C43.3954015,42.7316788 42.8619708,41.5059124 41.809927,40.5872263 C40.7629927,39.6731387 39.0339416,39.2286131 36.5231387,39.2286131 L35.2723358,39.2286131 L32.9633577,31.4979562 L35.540073,31.4979562 C37.7964234,31.4979562 39.3440876,31.0815328 40.2714599,30.2241606 C41.1978102,29.3683212 41.6673723,28.1354015 41.6673723,26.5591241 C41.6673723,25.0850365 41.1967883,23.9093431 40.2689051,23.0627007 C39.3410219,22.2181022 37.8235036,21.8072993 35.6294891,21.8072993 L30.1960584,21.8072993 L30.1960584,13.9018978 L53.2894161,27.9688321 C51.8981022,31.4851825 48.5105109,33.4932117 47.1064234,34.0036496 C46.9005109,34.0787591 46.7681752,34.2785401 46.7789051,34.4967153 C46.790146,34.7154015 46.9424088,34.9008759 47.1544526,34.9545255 C50.1659854,35.7153285 52.4044526,37.0284672 53.8070073,38.8561314 C55.2116058,40.6878832 55.9233577,43.0326277 55.9233577,45.8254745 C55.9233577,48.1058394 55.4134307,50.1813139 54.4068613,51.9956934 L54.4068613,51.9956934 L54.4068613,51.9956934 Z M36.5231387,40.2244526 C38.7513869,40.2244526 40.309781,40.5989781 41.1548905,41.3367883 C41.9928467,42.0689781 42.400073,43.0147445 42.400073,44.230292 C42.400073,45.5556934 41.9856934,46.5760584 41.1329197,47.3491241 C40.2791241,48.1247445 38.7381022,48.5181752 36.5527737,48.5181752 L30.1694891,48.5181752 L30.1694891,40.2244526 L36.5231387,40.2244526 L36.5231387,40.2244526 Z M50.2640876,56.3157664 C49.3413139,56.8767883 47.4870803,57.5951825 45.0493431,57.929854 C42.2059124,58.319708 40.5110949,58.369781 39.3527737,58.369781 L16.7764964,58.369781 L29.6457664,23.87 L34.2330657,39.2286131 L29.6718248,39.2286131 C29.3969343,39.2286131 29.1741606,39.4513869 29.1741606,39.7267883 L29.1741606,49.0158394 C29.1741606,49.0367883 29.1838686,49.0546715 29.1859124,49.0745985 C29.19,49.1083212 29.1951095,49.1405109 29.2058394,49.1721898 C29.2160584,49.2023358 29.2293431,49.2294161 29.2451825,49.2570073 C29.2610219,49.2851095 29.2773723,49.3106569 29.2978102,49.3351825 C29.3187591,49.359708 29.3417518,49.379635 29.3667883,49.399562 C29.3913139,49.4194891 29.4158394,49.4368613 29.4439416,49.4516788 C29.4740876,49.4675182 29.5052555,49.4777372 29.5389781,49.4869343 C29.5578832,49.4925547 29.5737226,49.5043066 29.5936496,49.5073723 L53.5530657,53.3226277 C52.659927,54.5284672 51.5593431,55.5324818 50.2640876,56.3157664 L50.2640876,56.3157664 L50.2640876,56.3157664 Z M29.200219,13.5140876 L29.200219,22.2155474 L16.5567883,56.1093431 L16.5567883,13.5140876 L29.200219,13.5140876 L29.200219,13.5140876 Z M30.3667153,22.8031387 L35.6294891,22.8031387 C37.5373723,22.8031387 38.8729927,23.1383212 39.5980292,23.7989781 C40.3210219,24.4575912 40.6720438,25.359927 40.6720438,26.5591241 C40.6720438,27.8645985 40.32,28.8241606 39.5959854,29.4924818 C38.8709489,30.1628467 37.5062044,30.5021168 35.540073,30.5021168 L32.6659854,30.5021168 L30.3667153,22.8031387 L30.3667153,22.8031387 Z M50.6677372,16.6564234 C52.7375912,18.6680292 53.7942336,21.2166423 53.8979562,24.4483942 C53.9275912,25.3640146 53.8187591,26.2137226 53.610292,26.9990511 L31.4724088,13.5140876 L41.3189051,13.5140876 C45.3748175,13.5140876 48.520219,14.5712409 50.6677372,16.6564234 L50.6677372,16.6564234 L50.6677372,16.6564234 Z M54.5969343,38.2506569 C53.2659124,36.5154745 51.2793431,35.21 48.6811679,34.359781 C51.1388321,32.9940146 55.0629197,29.689708 54.8932847,24.4167153 C54.780365,20.9141606 53.6251095,18.1422628 51.3616058,15.9426277 C49.0214599,13.669927 45.6425547,12.5182482 41.3189051,12.5182482 L16.0591241,12.5182482 C15.7842336,12.5182482 15.5614599,12.7410219 15.5614599,13.0159124 L15.5614599,58.8674453 C15.5614599,58.8715328 15.5635036,58.8740876 15.5635036,58.8776642 C15.5645255,58.9180292 15.5767883,58.9553285 15.5870073,58.9931387 C15.5936496,59.0181752 15.5946715,59.0447445 15.6048905,59.0677372 C15.6176642,59.0973723 15.640146,59.1208759 15.6585401,59.1474453 C15.6769343,59.1735036 15.6907299,59.2016058 15.7132117,59.2235766 C15.7310949,59.2414599 15.7561314,59.2521898 15.7770803,59.2670073 C15.8092701,59.2894891 15.8394161,59.3140146 15.8767153,59.3288321 C15.879781,59.329854 15.8818248,59.3329197 15.8854015,59.3344526 C15.9426277,59.3559124 16.0013869,59.3656204 16.0591241,59.3656204 L39.3527737,59.3656204 C40.5427737,59.3656204 42.2815328,59.3140146 45.1847445,58.9154745 C47.3833577,58.6145255 49.4756934,57.9605109 50.7806569,57.1670073 C52.6742336,56.0214599 54.1871533,54.4441606 55.2775182,52.4790511 C56.3668613,50.5154745 56.9186861,48.2770073 56.9186861,45.8254745 C56.9186861,42.8088321 56.1379562,40.259708 54.5969343,38.2506569 L54.5969343,38.2506569 L54.5969343,38.2506569 Z" id="Fill-5" fill="#F5E56A" sketch:type="MSShapeGroup"></path>
        </g>
    </g>
</svg>